<?xml version="1.0" standalone="no"?><!DOCTYPE svg PUBLIC "-//W3C//DTD SVG 1.1//EN" "http://www.w3.org/Graphics/SVG/1.1/DTD/svg11.dtd"><svg t="1753801361261" class="icon" viewBox="0 0 1024 1024" version="1.1" xmlns="http://www.w3.org/2000/svg" p-id="1540" xmlns:xlink="http://www.w3.org/1999/xlink" width="200" height="200"><path d="M0 0h1023.999v1023.999H0z" fill="#000000" opacity=".01" p-id="1541"></path><path d="M348.41766 1023.999h336.510671c48.878952 0 92.743909-32.353968 105.276897-79.017923 0.626999-0.622999 0.626999-1.244999 0.627-1.866998 20.67898-87.107915 46.371955-174.836829 79.584922-267.544739 17.189983-39.621961 48.214953-83.424919 75.983926-122.63188l1.719998-2.428998c38.225963-53.508948 68.307933-96.440906 73.947928-134.394868 5.639994-29.864971-1.259999-59.107942-18.179982-83.995918-17.541983-24.887976-43.234958-41.686959-73.313929-47.286954-21.305979-3.732996-42.611958-1.244999-62.037939 6.221994-10.02699 3.110997-20.67998 8.087992-31.33297 14.931985 13.159987-41.06396 21.932979-78.395923 19.425981-103.283899v-1.866998c-5.012995-32.353968-21.932979-61.59694-48.877952-80.884921-26.945974-19.910981-59.531942-27.999973-92.11791-23.021978-20.05298 2.489998-38.225963 9.95599-54.518947 21.776979-1.252999 0.621999-2.505998 1.866998-3.759996 3.110997-8.772991 8.088992-17.545983 20.53298-25.691975 36.087965-3.133997-39.820961-8.772991-74.041928-18.172982-93.951908-0.24-0.475-0.387-0.859999-0.514-1.187999-0.204-0.531999-0.352-0.915999-0.738999-1.299999-16.292984-27.999973-43.238958-48.531953-75.198926-57.242944-32.584968-8.709991-65.797936-3.732996-95.249907 13.065987-17.546983 10.57699-33.212968 25.509975-43.865958 43.553958l-1.879998 3.732996c-13.159987 28.620972-15.665985 96.440906-13.785986 166.126838-16.292984-27.998973-33.212968-54.753947-50.131951-80.885921-0.378-1.125999-1.211999-2.025998-2.089998-2.971997-0.576999-0.621999-1.172999-1.264999-1.669999-2.004998-27.572973-29.243971-75.197927-37.331964-122.19688-20.53298-52.011949 19.287981-86.477916 62.841939-88.357914 114.483888-2.505998 54.753947 59.531942 208.435796 109.036893 320.431687-36.971964-17.421983-76.450925-29.865971-110.916891-26.132975C51.38495 534.331478 0 585.973428 0 649.437366c0 15.554985 3.132997 30.48797 9.399991 45.419955 13.125987 38.477962 49.943951 66.432935 92.41791 98.682904l0.325999 0.247 4.136996 3.171997c26.542974 20.34598 56.199945 43.078958 83.593919 70.868931 64.726937 66.521935 117.107886 128.446875 126.843876 139.960863 1.009999 1.189999 1.560998 1.839998 1.618998 1.899998 7.519993 9.329991 18.172982 14.309986 30.079971 14.309986z m336.511671-77.151925H366.590642c-20.67898-24.887976-65.797936-76.529925-120.942882-134.393868-31.796969-32.785968-64.787937-57.869943-93.731908-79.875922l-2.145998-1.631999c-31.331969-23.643977-60.784941-46.042955-66.424935-62.841938 0-1.244999-0.625999-2.488998-1.252999-3.732997-2.506998-5.599995-3.759996-10.57799-3.759996-16.176984 0-21.154979 17.545983-38.576962 39.478961-38.576962 0.939999 0 1.722998-0.155 2.506998-0.311 0.782999-0.155 1.565998-0.311 2.505997-0.311 38.225963-4.976995 120.943882 44.175957 167.942836 80.885921a39.753961 39.753961 0 0 0 48.877952 0c14.412986-10.57799 18.799982-30.48797 11.279989-46.664954-77.704924-164.881839-157.288846-360.873648-155.408848-402.560607 1.252999-29.242971 28.825972-41.686959 37.598963-44.797956 16.918983-5.599995 30.70597-4.355996 36.344965-0.623 46.372955 70.930931 88.984913 148.082855 127.836875 229.590776 8.146992 17.420983 27.572973 26.131974 45.745955 21.154979 18.171982-4.977995 30.70597-22.398978 28.825972-41.064959-11.279989-124.439878-15.666985-275.632731-4.386996-306.120701 4.386996-6.221994 9.399991-11.199989 15.665985-14.932986 10.65299-6.221994 23.185977-8.087992 35.092966-4.976995 10.65299 3.109997 20.05298 9.95499 26.318974 19.909981 14.412986 32.975968 15.665985 176.703827 8.772992 292.431714-1.252999 20.53298 13.159987 37.953963 33.212967 41.06496 20.05198 2.488998 38.851962-9.95499 43.864957-29.242972 23.185977-91.462911 60.158941-200.346804 80.210922-222.745782 5.639994-3.110997 11.279989-5.599995 17.546983-6.221994 11.905988-1.244999 23.811977 1.243999 33.838967 8.709991 10.02599 6.844993 16.292984 16.799984 18.172982 28.620973 2.505998 34.220967-46.372955 157.415846-93.370909 253.234752-9.399991 18.042982-2.506998 39.819961 15.038986 50.396951 17.546983 9.95599 40.105961 5.599995 52.011949-11.198989 36.345965-51.01995 104.650898-128.172875 140.996862-139.371864 1.252999 0 2.505998-0.621999 3.759996-1.243999 5.638994-2.488998 12.532988-3.110997 19.425981-1.866998 9.398991 1.243999 17.545983 6.843993 22.558978 14.309986 5.639994 8.088992 7.519993 17.421983 5.639995 26.754974-0.626999 1.243999-0.626999 1.865998-0.626999 2.488998-2.466998 18.375982-33.478967 62.680939-58.955943 99.077903l-1.201999 1.717998-1.697998 2.407998c-30.27097 42.930958-63.853938 90.557912-84.152918 137.585865-0.626999 0.621999-1.253999 1.865998-1.253999 2.488998-34.464966 95.195907-61.41094 186.035818-82.716919 276.25473-4.386996 13.065987-16.919983 22.398978-30.70597 22.398978z" fill="#333333" p-id="1542"></path></svg>