<?xml version="1.0" standalone="no"?><!DOCTYPE svg PUBLIC "-//W3C//DTD SVG 1.1//EN" "http://www.w3.org/Graphics/SVG/1.1/DTD/svg11.dtd"><svg t="1753802338882" class="icon" viewBox="0 0 1024 1024" version="1.1" xmlns="http://www.w3.org/2000/svg" p-id="8495" xmlns:xlink="http://www.w3.org/1999/xlink" width="200" height="200"><path d="M37.55469 408.7c-10 9.4-19.7 21.9-27.8 38.4-6.1 12.5-9.4 26.3-9.7 40.2-1.2 63.1 15.2 263.1 266.6 302L342.75469 636.4 125.05469 411.2c-23.6-24.6-62.7-25.9-87.5-2.5z" fill="" p-id="8496"></path><path d="M79.05469 481.3c-10.8 22.4-6.1 64.2 49.1 142.1 18.4 26 41.1 48.6 67.3 66.7 23.1 16 50.8 32.1 68.5 31.5 0 0 13.9-79.9 38.2-84.5L139.75469 471.7c-18.2-18.5-49.5-13.8-60.7 9.6z" fill="#FFFFFF" p-id="8497"></path><path d="M281.95469 246.4c-23.1-38.4-70.9-54.1-112.3-36.7-49.7 20.9-100.1 68.3-77.1 175.7 0 0 49.8 194.5 267.5 289.5l92.6-144.7-170.7-283.8z" fill="" p-id="8498"></path><path d="M196.35469 286c-12.5 8.6-24.8 22.8-34.4 46.1 0 0-41.7 142.4 193.4 271l92.6-85.7-176.5-219.9c-18.3-22.7-51-27.9-75.1-11.5z" fill="#FFFFFF" p-id="8499"></path><path d="M388.55469 77.5c-11.7 0.8-23.7 2.8-35.4 6.8 0 0-109.1 47.3-103.1 130.4 0.8 11.4 0.9 22.9 0.6 34.3-1.2 44 22.6 174.8 174.3 302L562.75469 465.3l-66-305.9c-10.9-50.3-56.9-85.2-108.2-81.9z" fill="" p-id="8500"></path><path d="M419.55469 161.6c-11.7-1.5-25.6-2.4-39.8-0.8-9.4 1-18.2 5.3-24.7 12.1-31.2 32.3-106.3 145.4 119.6 331.8l68.3-41.7-85.7-269.7c-5.4-17-20-29.4-37.7-31.7z" fill="#FFFFFF" p-id="8501"></path><path d="M761.45469 139.8S683.45469 26.3 533.75469 59.5c0 0-140.5 57.9-84.1 269.4 0 0 50.9 121.2 97.3 172.9l214.5-362z" fill="" p-id="8502"></path><path d="M680.45469 170.7s-32-39.5-84.3-37.2c-1.8 0.1-3.6 0.3-5.4 0.5-9.2 1.2-41 5.6-49.8 10.7-0.7 0.4-1.5 0.9-2.2 1.3-9.2 5.2-63.1 40.2-32.7 132.8 0 0 19.3 105.7 81.8 152.1 0-0.1 106.5-225.5 92.6-260.2z" fill="#FFFFFF" p-id="8503"></path><path d="M590.45469 423s-61.8-36-41.7-120.4c9.9-41.6 35.8-77.5 71.8-100.5 50.9-32.5 142.9-82.1 214.3-68.6 0 0 37.7 5.9 80.2 35.9 54.3 38.4 89.8 98.2 98.2 164.2 7.3 57.5 17.4 160.6 4.5 217.8 0 0-18.5 112.3-48.6 149.4 0 0-87.5 82.1-173.4 120.5-32 14.3-63.3 30.4-93.4 48.5-45.5 27.3-105.7 63.5-138.6 82.9-17.2 10.1-36.6 15.7-56.5 16.3-63.6 1.7-201.2-14.5-260.7-175.5 0 0 101.2-215 242.9-298.1 35.1-20.6 68.5-44.2 99.2-70.9l1.8-1.5z" fill="" p-id="8504"></path><path d="M810.45469 412l-22-63.7s-84.5 52.1-135.5 31.3c0 0-28.6-7-36.8-41.2-6.1-25.4 2.3-52 21.5-69.8 22.9-21.3 65.6-50.3 131.2-54.6 0 0 126.2-4.6 159.8 103.1 0 0 30.1 120.4 9.3 233.9 0 0-32.4 103.1-60.2 123.9 0 0-362.4 228.1-374 222.3-4.6-2.3-67-5.9-76.4-18.5-6.9-9.3-131.4-61.4-112.3-137.8 1-4.6 34.5-169.1 495.4-328.9z" fill="#FFFFFF" p-id="8505"></path></svg>