<?xml version="1.0" standalone="no"?><!DOCTYPE svg PUBLIC "-//W3C//DTD SVG 1.1//EN" "http://www.w3.org/Graphics/SVG/1.1/DTD/svg11.dtd"><svg t="1753801247433" class="icon" viewBox="0 0 1024 1024" version="1.1" xmlns="http://www.w3.org/2000/svg" p-id="3910" xmlns:xlink="http://www.w3.org/1999/xlink" width="200" height="200"><path d="M613.142857 950.857143l-101.142857 0q-93.142857 0-129.142857-80.571429-13.142857-28-13.142857-58.285714l0-2.857143q-35.428571-17.142857-56.285714-50.571429t-20.857143-72.857143q0-21.714286 2.857143-27.428571l-149.142857 0q-60.571429 0-103.428571-42.857143t-42.857143-103.428571 42.857143-103.428571 103.428571-42.857143l64.571429 0-25.142857-9.714286q-42.285714-16-68.285714-53.428571t-26-83.142857q0-60.571429 42.857143-103.428571t103.428571-42.857143q26.285714 0 52 9.714286l358.857143 136.571429 229.142857 0q60.571429 0 103.428571 42.857143t42.857143 103.428571l0 381.714286q0 50.285714-30.857143 90t-80 51.714286l-193.714286 48.571429q-52.571429 13.142857-106.285714 13.142857zm-28-406.285714l-88.571429 40.571429-93.142857 42.285714q-17.142857 8-27.428571 23.714286t-10.285714 34.571429q0 26.285714 18.857143 45.142857t45.142857 18.857143q14.857143 0 26.285714-5.714286l193.142857-88q-28-5.714286-46-28.571429t-18-51.428571l0-31.428571zm182.857143 177.714286q0-26.285714-18.857143-45.142857t-45.142857-18.857143q-14.857143 0-26.285714 5.714286l-165.714286 75.428571q-16 7.428571-21.142857 9.714286t-17.428571 9.714286-16.857143 13.428571-9.142857 16.571429-4.571429 23.142857q0 28.571429 18 46.857143t46.571429 18.285714q11.428571 0 21.714286-5.142857l201.142857-91.428571q17.142857-8 27.428571-23.714286t10.285714-34.571429zm-132.571429-429.714286l-371.428571-141.714286q-13.714286-4.571429-26.285714-4.571429-30.285714 0-51.714286 21.428571t-21.428571 51.714286q0 22.857143 12.857143 41.714286t34 26.857143l300.571429 114.285714 0 36.571429-365.714286 0q-30.285714 0-51.714286 21.428571t-21.428571 51.714286 21.428571 51.714286 51.714286 21.428571l305.714286 0 133.142857-60.571429 0-113.142857q0-36 26.285714-60.571429l63.428571-58.285714-39.428571 0zm-22.285714 585.142857q46.857143 0 88.571429-10.857143l193.714286-48.571429q24.571429-6.285714 40-26t15.428571-44.857143l0-381.714286q0-30.285714-21.428571-51.714286t-51.714286-21.428571l-176 0-77.714286 72q-20.571429 18.857143-20.571429 46.857143l0 169.142857q0 26.285714 18.857143 44t45.142857 17.714286 45.142857-20 18.857143-46.285714l0-118.857143 18.285714 0 0 118.857143q0 40-32.571429 65.142857 29.714286 4.571429 49.428571 27.714286t19.714286 53.428571q0 24-13.142857 44.571429t-34.857143 30.285714l-177.142857 80.571429 52 0z" fill="#272636" p-id="3911"></path></svg>